# xmcd
#
# Track frame offsets:
# 150
# 15989
# 30464
# 40026
# 57051
# 68526
# 83849
# 97354
# 111833
# 124214
# 140556
#
# Disc length: 2221 seconds
#
# Revision: 0
# Processed by: cddbd v1.5.2PL0 Copyright (c) Steve Scherf et al.
# Submitted via: CoinsHifi v1.9f contact@coinshifi.com
#
DISCID=8a08ab0b
DTITLE=RAFAEL - CARAVANE
DYEAR=2006
DGENRE=Acoustique
TTITLE0=caravane
TTITLE1=ne partons pas fâchés
TTITLE2=c'est bon aujourd'hui
TTITLE3=chanson pour patrick dewaere
TTITLE4=et dans 150 ans
TTITLE5=les petits bateaux
TTITLE6=la route de nuit
TTITLE7=schengen
TTITLE8=peut être a-t-il rêvé
TTITLE9=la ballade du pauvre
TTITLE10=funanbule
EXTD=
EXTT0=Live
EXTT1=Live
EXTT2=Live
EXTT3=Live
EXTT4=Live
EXTT5=Live
EXTT6=Live
EXTT7=Live
EXTT8=Live
EXTT9=Live
EXTT10=Live
PLAYORDER=
